  0
SECTION
  2
HEADER
  9
$ACADVER
  1
AC1009
  9
$INSUNITS
 70
     1
  0
ENDSEC
  0
SECTION
  2
TABLES
  0
TABLE
  2
LAYER
 70
     8
  0
LAYER
  2
0
 62
     7
 70
0
  6
CONTINUOUS
  0
LAYER
  2
1
 62
     1
 70
0
  6
CONTINUOUS
  0
LAYER
  2
2
 62
     2
 70
0
  6
CONTINUOUS
  0
LAYER
  2
3
 62
     3
 70
0
  6
CONTINUOUS
  0
LAYER
  2
4
 62
     4
 70
0
  6
CONTINUOUS
  0
LAYER
  2
5
 62
     5
 70
0
  6
CONTINUOUS
  0
LAYER
  2
6
 62
     6
 70
0
  6
CONTINUOUS
  0
LAYER
  2
7
 62
     7
 70
0
  6
CONTINUOUS
  0
ENDTAB
  0
TABLE
  2
STYLE
 70
     1
  0
STYLE
 70
     0
  2
STANDARD
  3
TXT
 40
0.00
 41
1.00
 42
1.00
 50
0.00
 71
     0
  0
ENDTAB
  0
ENDSEC
  0
SECTION
  2
BLOCKS
  0
BLOCK
  8
0
  2
EPAD
 70
0
 10
0.0
 20
0.0
  0
POLYLINE
  8
0
 66
1
 70
1
 40
0.5
 41
0.5
  0
VERTEX
  8
0
 10
-0.25
 20
0.0
 42
1.0
  0
VERTEX
  8
0
 10
0.25
 20
0.0
 42
1.0
  0
SEQEND
  8
0
  0
ENDBLK
  8
0
  0
BLOCK
  8
0
  2
RPAD
 70
0
 10
0.0
 20
0.0
  0
TRACE
  8
0
 10
-0.5
 20
-0.5
 11
-0.5
 21
0.5
 12
0.5
 22
-0.5
 13
0.5
 23
0.5
  0
ENDBLK
  8
0
  0
ENDSEC
0
SECTION
2
ENTITIES
0
POLYLINE
8
0
66
1
40
0.016000
41
0.016000
0
VERTEX
8
0
10
-4.100000
20
-2.300000
0
VERTEX
8
0
10
-4.100000
20
-2.300000
0
SEQEND
8
0
0
POLYLINE
8
0
66
1
40
0.016000
41
0.016000
0
VERTEX
8
0
10
-4.100000
20
-2.000000
0
VERTEX
8
0
10
-4.100000
20
-2.100000
0
VERTEX
8
0
10
-4.100000
20
-2.100000
0
SEQEND
8
0
0
POLYLINE
8
0
66
1
40
0.016000
41
0.016000
0
VERTEX
8
0
10
-4.100000
20
-2.300000
0
VERTEX
8
0
10
-4.100000
20
-2.200000
0
VERTEX
8
0
10
-4.100000
20
-2.200000
0
SEQEND
8
0
0
POLYLINE
8
0
66
1
40
0.016000
41
0.016000
0
VERTEX
8
0
10
-4.100000
20
-2.100000
0
VERTEX
8
0
10
-4.100000
20
-2.200000
0
SEQEND
8
0
0
POLYLINE
8
0
66
1
40
0.016000
41
0.016000
0
VERTEX
8
0
10
-4.100000
20
-2.300000
0
VERTEX
8
0
10
-4.100000
20
-2.400000
0
VERTEX
8
0
10
-4.100000
20
-2.400000
0
VERTEX
8
0
10
-4.100000
20
-2.500000
0
VERTEX
8
0
10
-4.100000
20
-2.500000
0
VERTEX
8
0
10
-4.300000
20
-2.500000
0
VERTEX
8
0
10
-4.300000
20
-2.700000
0
VERTEX
8
0
10
-4.300000
20
-2.700000
0
SEQEND
8
0
0
POLYLINE
8
0
66
1
40
0.016000
41
0.016000
0
VERTEX
8
0
10
-4.100000
20
-1.800000
0
VERTEX
8
0
10
-4.100000
20
-1.700000
0
VERTEX
8
0
10
-4.100000
20
-1.700000
0
VERTEX
8
0
10
-4.100000
20
-1.600000
0
VERTEX
8
0
10
-4.100000
20
-1.600000
0
VERTEX
8
0
10
-4.100000
20
-1.500000
0
VERTEX
8
0
10
-4.100000
20
-1.500000
0
VERTEX
8
0
10
-4.100000
20
-1.400000
0
VERTEX
8
0
10
-4.100000
20
-1.400000
0
VERTEX
8
0
10
-4.100000
20
-1.200000
0
VERTEX
8
0
10
-4.100000
20
-1.200000
0
SEQEND
8
0
0
POLYLINE
8
0
66
1
40
0.016000
41
0.016000
0
VERTEX
8
0
10
-2.100000
20
-1.700000
0
VERTEX
8
0
10
3.500000
20
-1.700000
0
VERTEX
8
0
10
3.500000
20
-1.000000
0
SEQEND
8
0
0
POLYLINE
8
0
66
1
40
0.016000
41
0.016000
0
VERTEX
8
0
10
-2.100000
20
-1.600000
0
VERTEX
8
0
10
3.400000
20
-1.600000
0
VERTEX
8
0
10
3.400000
20
-1.000000
0
SEQEND
8
0
0
POLYLINE
8
0
66
1
40
0.016000
41
0.016000
0
VERTEX
8
0
10
-2.100000
20
-1.500000
0
VERTEX
8
0
10
3.300000
20
-1.500000
0
VERTEX
8
0
10
3.300000
20
-1.000000
0
SEQEND
8
0
0
POLYLINE
8
0
66
1
40
0.016000
41
0.016000
0
VERTEX
8
0
10
-2.100000
20
-1.400000
0
VERTEX
8
0
10
3.200000
20
-1.400000
0
VERTEX
8
0
10
3.200000
20
-1.000000
0
SEQEND
8
0
0
POLYLINE
8
0
66
1
40
0.016000
41
0.016000
0
VERTEX
8
0
10
-2.100000
20
-1.300000
0
VERTEX
8
0
10
2.600000
20
-1.300000
0
VERTEX
8
0
10
2.600000
20
-1.000000
0
SEQEND
8
0
0
POLYLINE
8
0
66
1
40
0.016000
41
0.016000
0
VERTEX
8
0
10
-2.100000
20
-1.200000
0
VERTEX
8
0
10
2.500000
20
-1.200000
0
VERTEX
8
0
10
2.500000
20
-1.000000
0
SEQEND
8
0
0
POLYLINE
8
0
66
1
40
0.016000
41
0.016000
0
VERTEX
8
0
10
-2.100000
20
-1.100000
0
VERTEX
8
0
10
2.400000
20
-1.100000
0
VERTEX
8
0
10
2.400000
20
-1.000000
0
SEQEND
8
0
0
POLYLINE
8
0
66
1
40
0.016000
41
0.016000
0
VERTEX
8
0
10
-2.100000
20
1.700000
0
VERTEX
8
0
10
0.500000
20
1.700000
0
SEQEND
8
0
0
POLYLINE
8
0
66
1
40
0.016000
41
0.016000
0
VERTEX
8
0
10
-2.100000
20
2.000000
0
VERTEX
8
0
10
0.500000
20
2.000000
0
SEQEND
8
0
0
POLYLINE
8
0
66
1
40
0.016000
41
0.016000
0
VERTEX
8
0
10
-2.100000
20
1.800000
0
VERTEX
8
0
10
0.500000
20
1.900000
0
SEQEND
8
0
0
POLYLINE
8
0
66
1
40
0.016000
41
0.016000
0
VERTEX
8
0
10
-2.100000
20
1.900000
0
VERTEX
8
0
10
0.500000
20
1.800000
0
SEQEND
8
0
0
POLYLINE
8
0
66
1
40
0.016000
41
0.016000
0
VERTEX
8
0
10
-2.100000
20
0.600000
0
VERTEX
8
0
10
-1.700000
20
0.600000
0
VERTEX
8
0
10
-1.700000
20
-0.400000
0
VERTEX
8
0
10
-0.900000
20
-0.400000
0
VERTEX
8
0
10
-0.900000
20
-0.500000
0
SEQEND
8
0
0
POLYLINE
8
0
66
1
40
0.016000
41
0.016000
0
VERTEX
8
0
10
-2.100000
20
0.700000
0
VERTEX
8
0
10
-1.600000
20
0.700000
0
VERTEX
8
0
10
-1.600000
20
0.000000
0
VERTEX
8
0
10
-1.200000
20
0.000000
0
SEQEND
8
0
0
POLYLINE
8
0
66
1
40
0.016000
41
0.016000
0
VERTEX
8
0
10
-2.100000
20
0.500000
0
VERTEX
8
0
10
-1.900000
20
0.500000
0
VERTEX
8
0
10
-1.900000
20
-0.700000
0
VERTEX
8
0
10
-1.700000
20
-0.700000
0
SEQEND
8
0
0
POLYLINE
8
0
66
1
40
0.016000
41
0.016000
0
VERTEX
8
0
10
1.700000
20
1.400000
0
VERTEX
8
0
10
2.000000
20
1.400000
0
VERTEX
8
0
10
2.000000
20
0.600000
0
VERTEX
8
0
10
3.700000
20
0.600000
0
SEQEND
8
0
0
POLYLINE
8
0
66
1
40
0.016000
41
0.016000
0
VERTEX
8
0
10
3.700000
20
0.400000
0
VERTEX
8
0
10
3.700000
20
0.600000
0
VERTEX
8
0
10
3.700000
20
1.400000
0
SEQEND
8
0
0
POLYLINE
8
0
66
1
40
0.016000
41
0.016000
0
VERTEX
8
0
10
-1.300000
20
-0.700000
0
VERTEX
8
0
10
-1.300000
20
-0.800000
0
VERTEX
8
0
10
-0.200000
20
-0.800000
0
SEQEND
8
0
0
POLYLINE
8
0
66
1
40
0.016000
41
0.016000
0
VERTEX
8
0
10
-0.800000
20
0.000000
0
VERTEX
8
0
10
-0.200000
20
0.000000
0
VERTEX
8
0
10
-0.200000
20
-0.500000
0
SEQEND
8
0
0
POLYLINE
8
0
66
1
40
0.016000
41
0.016000
0
VERTEX
8
0
10
-0.200000
20
-0.800000
0
VERTEX
8
0
10
-0.200000
20
-0.500000
0
SEQEND
8
0
0
POLYLINE
8
0
66
1
40
0.016000
41
0.016000
0
VERTEX
8
0
10
-0.500000
20
-0.500000
0
VERTEX
8
0
10
-0.200000
20
-0.500000
0
SEQEND
8
0
0
POLYLINE
8
0
66
1
40
0.016000
41
0.016000
0
VERTEX
8
0
10
-0.200000
20
-0.800000
0
VERTEX
8
0
10
0.000000
20
-0.800000
0
SEQEND
8
0
0
POLYLINE
8
0
66
1
40
0.016000
41
0.016000
0
VERTEX
8
0
10
0.000000
20
0.100000
0
VERTEX
8
0
10
0.000000
20
-0.800000
0
VERTEX
8
0
10
0.400000
20
-0.800000
0
SEQEND
8
0
0
POLYLINE
8
0
66
1
40
0.016000
41
0.016000
0
VERTEX
8
0
10
2.000000
20
0.600000
0
VERTEX
8
0
10
1.400000
20
0.600000
0
VERTEX
8
0
10
1.400000
20
-0.800000
0
VERTEX
8
0
10
0.400000
20
-0.800000
0
SEQEND
8
0
0
POLYLINE
8
0
66
1
40
0.016000
41
0.016000
0
VERTEX
8
0
10
0.400000
20
0.100000
0
VERTEX
8
0
10
0.400000
20
-0.800000
0
SEQEND
8
0
0
POLYLINE
8
0
66
1
40
0.016000
41
0.016000
0
VERTEX
8
0
10
0.000000
20
0.600000
0
VERTEX
8
0
10
0.000000
20
0.700000
0
SEQEND
8
0
0
POLYLINE
8
0
66
1
40
0.016000
41
0.016000
0
VERTEX
8
0
10
0.000000
20
0.750000
0
VERTEX
8
0
10
0.000000
20
0.700000
0
SEQEND
8
0
0
POLYLINE
8
0
66
1
40
0.016000
41
0.016000
0
VERTEX
8
0
10
-2.100000
20
0.900000
0
VERTEX
8
0
10
-0.500000
20
0.900000
0
VERTEX
8
0
10
-0.500000
20
0.700000
0
VERTEX
8
0
10
0.000000
20
0.700000
0
SEQEND
8
0
0
POLYLINE
8
0
66
1
40
0.016000
41
0.016000
0
VERTEX
8
0
10
0.400000
20
0.750000
0
VERTEX
8
0
10
0.500000
20
0.750000
0
VERTEX
8
0
10
0.500000
20
0.700000
0
SEQEND
8
0
0
POLYLINE
8
0
66
1
40
0.016000
41
0.016000
0
VERTEX
8
0
10
0.400000
20
0.600000
0
VERTEX
8
0
10
0.500000
20
0.600000
0
VERTEX
8
0
10
0.500000
20
0.700000
0
SEQEND
8
0
0
POLYLINE
8
0
66
1
40
0.016000
41
0.016000
0
VERTEX
8
0
10
-2.100000
20
1.000000
0
VERTEX
8
0
10
-0.500000
20
1.000000
0
VERTEX
8
0
10
-0.500000
20
1.600000
0
VERTEX
8
0
10
0.300000
20
1.600000
0
VERTEX
8
0
10
0.300000
20
0.700000
0
VERTEX
8
0
10
0.500000
20
0.700000
0
SEQEND
8
0
0
POLYLINE
8
0
66
1
40
0.016000
41
0.016000
0
VERTEX
8
0
10
0.000000
20
1.250000
0
VERTEX
8
0
10
0.000000
20
1.300000
0
SEQEND
8
0
0
POLYLINE
8
0
66
1
40
0.016000
41
0.016000
0
VERTEX
8
0
10
0.400000
20
1.250000
0
VERTEX
8
0
10
0.400000
20
1.400000
0
SEQEND
8
0
0
POLYLINE
8
0
66
1
40
0.016000
41
0.016000
0
VERTEX
8
0
10
-4.100000
20
-1.200000
0
VERTEX
8
0
10
-4.100000
20
-1.000000
0
VERTEX
8
0
10
-4.400000
20
-1.000000
0
VERTEX
8
0
10
-4.400000
20
-1.000000
0
SEQEND
8
0
0
POLYLINE
8
0
66
1
40
0.016000
41
0.016000
0
VERTEX
8
0
10
3.300000
20
3.100000
0
VERTEX
8
0
10
3.300000
20
3.100000
0
SEQEND
8
0
0
POLYLINE
8
0
66
1
40
0.016000
41
0.016000
0
VERTEX
8
0
10
1.700000
20
1.500000
0
VERTEX
8
0
10
2.000000
20
1.500000
0
VERTEX
8
0
10
2.000000
20
2.900000
0
VERTEX
8
0
10
3.700000
20
2.900000
0
SEQEND
8
0
0
POLYLINE
8
0
66
1
40
0.016000
41
0.016000
0
VERTEX
8
0
10
3.300000
20
3.100000
0
VERTEX
8
0
10
3.700000
20
3.100000
0
VERTEX
8
0
10
3.700000
20
2.900000
0
SEQEND
8
0
0
POLYLINE
8
0
66
1
40
0.016000
41
0.016000
0
VERTEX
8
0
10
3.700000
20
2.700000
0
VERTEX
8
0
10
3.700000
20
2.900000
0
SEQEND
8
0
0
POLYLINE
8
0
66
1
40
0.016000
41
0.016000
0
VERTEX
8
0
10
1.700000
20
2.000000
0
VERTEX
8
0
10
3.700000
20
2.000000
0
VERTEX
8
0
10
3.700000
20
2.000000
0
SEQEND
8
0
0
POLYLINE
8
0
66
1
40
0.016000
41
0.016000
0
VERTEX
8
0
10
3.700000
20
2.200000
0
VERTEX
8
0
10
3.700000
20
2.000000
0
SEQEND
8
0
0
POLYLINE
8
0
66
1
40
0.016000
41
0.016000
0
VERTEX
8
0
10
-1.600000
20
3.300000
0
VERTEX
8
0
10
-1.900000
20
3.300000
0
VERTEX
8
0
10
-1.900000
20
2.400000
0
VERTEX
8
0
10
-2.100000
20
2.400000
0
SEQEND
8
0
0
POLYLINE
8
0
66
1
40
0.016000
41
0.016000
0
VERTEX
8
0
10
-1.600000
20
3.100000
0
VERTEX
8
0
10
-1.700000
20
3.100000
0
VERTEX
8
0
10
-1.700000
20
2.300000
0
VERTEX
8
0
10
-2.100000
20
2.300000
0
SEQEND
8
0
0
POLYLINE
8
0
66
1
40
0.016000
41
0.016000
0
VERTEX
8
0
10
-3.900000
20
-2.600000
0
VERTEX
8
0
10
-2.300000
20
-2.600000
0
VERTEX
8
0
10
-2.300000
20
2.500000
0
VERTEX
8
0
10
-3.900000
20
2.500000
0
VERTEX
8
0
10
-3.900000
20
-2.600000
0
SEQEND
8
0
0
POLYLINE
8
0
66
1
40
0.016000
41
0.016000
0
VERTEX
8
0
10
-4.100000
20
2.400000
0
VERTEX
8
0
10
-3.900000
20
2.400000
0
SEQEND
8
0
0
TEXT
8
0
10
-3.850000
20
2.360000
40
0.080000
41
1.000000
1
XTAL1
0
TEXT
8
0
10
-4.160000
20
2.410000
40
0.080000
41
1.000000
1
62
0
POLYLINE
8
0
66
1
40
0.016000
41
0.016000
0
VERTEX
8
0
10
-4.100000
20
2.300000
0
VERTEX
8
0
10
-3.900000
20
2.300000
0
SEQEND
8
0
0
TEXT
8
0
10
-3.850000
20
2.260000
40
0.080000
41
1.000000
1
XTAL2
0
TEXT
8
0
10
-4.160000
20
2.310000
40
0.080000
41
1.000000
1
61
0
POLYLINE
8
0
66
1
40
0.016000
41
0.016000
0
VERTEX
8
0
10
-2.100000
20
2.400000
0
VERTEX
8
0
10
-2.300000
20
2.400000
0
SEQEND
8
0
0
TEXT
8
0
10
-3.470000
20
2.360000
40
0.080000
41
1.000000
1
P0.0/TxD0/PWM1
0
TEXT
8
0
10
-2.200000
20
2.410000
40
0.080000
41
1.000000
1
19
0
POLYLINE
8
0
66
1
40
0.016000
41
0.016000
0
VERTEX
8
0
10
-2.100000
20
2.300000
0
VERTEX
8
0
10
-2.300000
20
2.300000
0
SEQEND
8
0
0
TEXT
8
0
10
-3.950000
20
2.260000
40
0.080000
41
1.000000
1
P0.1/RxD0/PWM3/EINT0
0
TEXT
8
0
10
-2.200000
20
2.310000
40
0.080000
41
1.000000
1
21
0
POLYLINE
8
0
66
1
40
0.016000
41
0.016000
0
VERTEX
8
0
10
-2.100000
20
2.200000
0
VERTEX
8
0
10
-2.300000
20
2.200000
0
SEQEND
8
0
0
TEXT
8
0
10
-3.630000
20
2.160000
40
0.080000
41
1.000000
1
P0.2/SCL0/CAP0.0
0
TEXT
8
0
10
-2.200000
20
2.210000
40
0.080000
41
1.000000
1
22
0
POLYLINE
8
0
66
1
40
0.016000
41
0.016000
0
VERTEX
8
0
10
-2.100000
20
2.100000
0
VERTEX
8
0
10
-2.300000
20
2.100000
0
SEQEND
8
0
0
TEXT
8
0
10
-4.190000
20
2.060000
40
0.080000
41
1.000000
1
P0.3/SDA0/MAT0..0/EINT1
0
TEXT
8
0
10
-2.200000
20
2.110000
40
0.080000
41
1.000000
1
26
0
POLYLINE
8
0
66
1
40
0.016000
41
0.016000
0
VERTEX
8
0
10
-2.100000
20
2.000000
0
VERTEX
8
0
10
-2.300000
20
2.000000
0
SEQEND
8
0
0
TEXT
8
0
10
-4.110000
20
1.960000
40
0.080000
41
1.000000
1
P0.4/SCK0/CAP0.1/AD0.6
0
TEXT
8
0
10
-2.200000
20
2.010000
40
0.080000
41
1.000000
1
27
0
POLYLINE
8
0
66
1
40
0.016000
41
0.016000
0
VERTEX
8
0
10
-2.100000
20
1.900000
0
VERTEX
8
0
10
-2.300000
20
1.900000
0
SEQEND
8
0
0
TEXT
8
0
10
-4.190000
20
1.860000
40
0.080000
41
1.000000
1
P0.5/MISO0/MAT0.1/AD0.7
0
TEXT
8
0
10
-2.200000
20
1.910000
40
0.080000
41
1.000000
1
29
0
POLYLINE
8
0
66
1
40
0.016000
41
0.016000
0
VERTEX
8
0
10
-2.100000
20
1.800000
0
VERTEX
8
0
10
-2.300000
20
1.800000
0
SEQEND
8
0
0
TEXT
8
0
10
-4.190000
20
1.760000
40
0.080000
41
1.000000
1
P0.6/MOSI0/CAP0.2/AD1.0
0
TEXT
8
0
10
-2.200000
20
1.810000
40
0.080000
41
1.000000
1
30
0
POLYLINE
8
0
66
1
40
0.016000
41
0.016000
0
VERTEX
8
0
10
-2.100000
20
1.700000
0
VERTEX
8
0
10
-2.300000
20
1.700000
0
SEQEND
8
0
0
TEXT
8
0
10
-4.030000
20
1.660000
40
0.080000
41
1.000000
1
P0.7/SSEL0/PWM2/EINT2
0
TEXT
8
0
10
-2.200000
20
1.710000
40
0.080000
41
1.000000
1
31
0
POLYLINE
8
0
66
1
40
0.016000
41
0.016000
0
VERTEX
8
0
10
-2.100000
20
1.600000
0
VERTEX
8
0
10
-2.300000
20
1.600000
0
SEQEND
8
0
0
TEXT
8
0
10
-3.950000
20
1.560000
40
0.080000
41
1.000000
1
P0.8/TxD1/PWM4/AD1.1
0
TEXT
8
0
10
-2.200000
20
1.610000
40
0.080000
41
1.000000
1
33
0
POLYLINE
8
0
66
1
40
0.016000
41
0.016000
0
VERTEX
8
0
10
-2.100000
20
1.500000
0
VERTEX
8
0
10
-2.300000
20
1.500000
0
SEQEND
8
0
0
TEXT
8
0
10
-3.950000
20
1.460000
40
0.080000
41
1.000000
1
P0.9/RxD1/PWM6/EINT3
0
TEXT
8
0
10
-2.200000
20
1.510000
40
0.080000
41
1.000000
1
34
0
POLYLINE
8
0
66
1
40
0.016000
41
0.016000
0
VERTEX
8
0
10
-2.100000
20
1.400000
0
VERTEX
8
0
10
-2.300000
20
1.400000
0
SEQEND
8
0
0
TEXT
8
0
10
-4.190000
20
1.360000
40
0.080000
41
1.000000
1
P0.10/RTS1/CAP1.0/AD1.2
0
TEXT
8
0
10
-2.200000
20
1.410000
40
0.080000
41
1.000000
1
35
0
POLYLINE
8
0
66
1
40
0.016000
41
0.016000
0
VERTEX
8
0
10
-2.100000
20
1.300000
0
VERTEX
8
0
10
-2.300000
20
1.300000
0
SEQEND
8
0
0
TEXT
8
0
10
-4.110000
20
1.260000
40
0.080000
41
1.000000
1
P0.11/CTS1/CAP1.1/SCL1
0
TEXT
8
0
10
-2.200000
20
1.310000
40
0.080000
41
1.000000
1
37
0
POLYLINE
8
0
66
1
40
0.016000
41
0.016000
0
VERTEX
8
0
10
-2.100000
20
1.200000
0
VERTEX
8
0
10
-2.300000
20
1.200000
0
SEQEND
8
0
0
TEXT
8
0
10
-4.190000
20
1.160000
40
0.080000
41
1.000000
1
P0.12/DSR1/MAT1.0/AD1.3
0
TEXT
8
0
10
-2.200000
20
1.210000
40
0.080000
41
1.000000
1
38
0
POLYLINE
8
0
66
1
40
0.016000
41
0.016000
0
VERTEX
8
0
10
-2.100000
20
1.100000
0
VERTEX
8
0
10
-2.300000
20
1.100000
0
SEQEND
8
0
0
TEXT
8
0
10
-4.190000
20
1.060000
40
0.080000
41
1.000000
1
P0.13/DTR1/MAT1.1/AD1.4
0
TEXT
8
0
10
-2.200000
20
1.110000
40
0.080000
41
1.000000
1
39
0
POLYLINE
8
0
66
1
40
0.016000
41
0.016000
0
VERTEX
8
0
10
-2.100000
20
1.000000
0
VERTEX
8
0
10
-2.300000
20
1.000000
0
SEQEND
8
0
0
TEXT
8
0
10
-4.030000
20
0.960000
40
0.080000
41
1.000000
1
P0.14/DCD1/EINT1/SDA1
0
TEXT
8
0
10
-2.200000
20
1.010000
40
0.080000
41
1.000000
1
41
0
POLYLINE
8
0
66
1
40
0.016000
41
0.016000
0
VERTEX
8
0
10
-2.100000
20
0.900000
0
VERTEX
8
0
10
-2.300000
20
0.900000
0
SEQEND
8
0
0
TEXT
8
0
10
-4.030000
20
0.860000
40
0.080000
41
1.000000
1
P0.15/RI1/EINT2/AD1.5
0
TEXT
8
0
10
-2.200000
20
0.910000
40
0.080000
41
1.000000
1
45
0
POLYLINE
8
0
66
1
40
0.016000
41
0.016000
0
VERTEX
8
0
10
-2.100000
20
0.700000
0
VERTEX
8
0
10
-2.300000
20
0.700000
0
SEQEND
8
0
0
TEXT
8
0
10
-4.350000
20
0.660000
40
0.080000
41
1.000000
1
P0.16/EINT0/MAT0.2/CAP0.2
0
TEXT
8
0
10
-2.200000
20
0.710000
40
0.080000
41
1.000000
1
46
0
POLYLINE
8
0
66
1
40
0.016000
41
0.016000
0
VERTEX
8
0
10
-2.100000
20
0.600000
0
VERTEX
8
0
10
-2.300000
20
0.600000
0
SEQEND
8
0
0
TEXT
8
0
10
-4.270000
20
0.560000
40
0.080000
41
1.000000
1
P0.17/CAP1.2/SCK1/MAT1.2
0
TEXT
8
0
10
-2.200000
20
0.610000
40
0.080000
41
1.000000
1
47
0
POLYLINE
8
0
66
1
40
0.016000
41
0.016000
0
VERTEX
8
0
10
-2.100000
20
0.500000
0
VERTEX
8
0
10
-2.300000
20
0.500000
0
SEQEND
8
0
0
TEXT
8
0
10
-4.350000
20
0.460000
40
0.080000
41
1.000000
1
P0.18/CAP1.3/MISO1/MAT1.3
0
TEXT
8
0
10
-2.200000
20
0.510000
40
0.080000
41
1.000000
1
53
0
POLYLINE
8
0
66
1
40
0.016000
41
0.016000
0
VERTEX
8
0
10
-2.100000
20
0.400000
0
VERTEX
8
0
10
-2.300000
20
0.400000
0
SEQEND
8
0
0
TEXT
8
0
10
-4.350000
20
0.360000
40
0.080000
41
1.000000
1
P0.19/MAT1.2/MOSI1/CAP1.2
0
TEXT
8
0
10
-2.200000
20
0.410000
40
0.080000
41
1.000000
1
54
0
POLYLINE
8
0
66
1
40
0.016000
41
0.016000
0
VERTEX
8
0
10
-2.100000
20
0.300000
0
VERTEX
8
0
10
-2.300000
20
0.300000
0
SEQEND
8
0
0
TEXT
8
0
10
-4.270000
20
0.260000
40
0.080000
41
1.000000
1
P0.20/MAT1.3/SSEL1/EINT3
0
TEXT
8
0
10
-2.200000
20
0.310000
40
0.080000
41
1.000000
1
55
0
POLYLINE
8
0
66
1
40
0.016000
41
0.016000
0
VERTEX
8
0
10
-2.100000
20
0.200000
0
VERTEX
8
0
10
-2.300000
20
0.200000
0
SEQEND
8
0
0
TEXT
8
0
10
-4.190000
20
0.160000
40
0.080000
41
1.000000
1
P0.21/PWM5/AD1.6/CAP1.3
0
TEXT
8
0
10
-2.200000
20
0.210000
40
0.080000
41
1.000000
1
1
0
POLYLINE
8
0
66
1
40
0.016000
41
0.016000
0
VERTEX
8
0
10
-2.100000
20
0.100000
0
VERTEX
8
0
10
-2.300000
20
0.100000
0
SEQEND
8
0
0
TEXT
8
0
10
-4.350000
20
0.060000
40
0.080000
41
1.000000
1
P0.22/AD1.7/CAP0.0/MAT0.0
0
TEXT
8
0
10
-2.200000
20
0.110000
40
0.080000
41
1.000000
1
2
0
POLYLINE
8
0
66
1
40
0.016000
41
0.016000
0
VERTEX
8
0
10
-2.100000
20
0.000000
0
VERTEX
8
0
10
-2.300000
20
0.000000
0
SEQEND
8
0
0
TEXT
8
0
10
-2.750000
20
-0.040000
40
0.080000
41
1.000000
1
P0.23
0
TEXT
8
0
10
-2.200000
20
0.010000
40
0.080000
41
1.000000
1
58
0
POLYLINE
8
0
66
1
40
0.016000
41
0.016000
0
VERTEX
8
0
10
-2.100000
20
-0.200000
0
VERTEX
8
0
10
-2.300000
20
-0.200000
0
SEQEND
8
0
0
TEXT
8
0
10
-3.630000
20
-0.240000
40
0.080000
41
1.000000
1
P0.25/AD0.4/AOUT
0
TEXT
8
0
10
-2.200000
20
-0.190000
40
0.080000
41
1.000000
1
9
0
POLYLINE
8
0
66
1
40
0.016000
41
0.016000
0
VERTEX
8
0
10
-2.100000
20
-0.400000
0
VERTEX
8
0
10
-2.300000
20
-0.400000
0
SEQEND
8
0
0
TEXT
8
0
10
-4.350000
20
-0.440000
40
0.080000
41
1.000000
1
P0.27/AD0.0/CAP0.1/MAT0.1
0
TEXT
8
0
10
-2.200000
20
-0.390000
40
0.080000
41
1.000000
1
11
0
POLYLINE
8
0
66
1
40
0.016000
41
0.016000
0
VERTEX
8
0
10
-2.100000
20
-0.500000
0
VERTEX
8
0
10
-2.300000
20
-0.500000
0
SEQEND
8
0
0
TEXT
8
0
10
-4.350000
20
-0.540000
40
0.080000
41
1.000000
1
P0.28/AD0.1/CAP0.2/MAT0.2
0
TEXT
8
0
10
-2.200000
20
-0.490000
40
0.080000
41
1.000000
1
13
0
POLYLINE
8
0
66
1
40
0.016000
41
0.016000
0
VERTEX
8
0
10
-2.100000
20
-0.600000
0
VERTEX
8
0
10
-2.300000
20
-0.600000
0
SEQEND
8
0
0
TEXT
8
0
10
-4.350000
20
-0.640000
40
0.080000
41
1.000000
1
P0.29/AD0.2/CAP0.3/MAT0.3
0
TEXT
8
0
10
-2.200000
20
-0.590000
40
0.080000
41
1.000000
1
14
0
POLYLINE
8
0
66
1
40
0.016000
41
0.016000
0
VERTEX
8
0
10
-2.100000
20
-0.700000
0
VERTEX
8
0
10
-2.300000
20
-0.700000
0
SEQEND
8
0
0
TEXT
8
0
10
-4.270000
20
-0.740000
40
0.080000
41
1.000000
1
P0.30/AD0.3/EINT3/CAP0.0
0
TEXT
8
0
10
-2.200000
20
-0.690000
40
0.080000
41
1.000000
1
15
0
POLYLINE
8
0
66
1
40
0.016000
41
0.016000
0
VERTEX
8
0
10
-4.100000
20
-1.800000
0
VERTEX
8
0
10
-3.900000
20
-1.800000
0
SEQEND
8
0
0
TEXT
8
0
10
-3.850000
20
-1.840000
40
0.080000
41
1.000000
1
V3
0
TEXT
8
0
10
-4.160000
20
-1.790000
40
0.080000
41
1.000000
1
23
0
POLYLINE
8
0
66
1
40
0.016000
41
0.016000
0
VERTEX
8
0
10
-4.100000
20
1.800000
0
VERTEX
8
0
10
-3.900000
20
1.800000
0
SEQEND
8
0
0
TEXT
8
0
10
-3.850000
20
1.760000
40
0.080000
41
1.000000
1
RST
0
TEXT
8
0
10
-4.160000
20
1.810000
40
0.080000
41
1.000000
1
57
0
POLYLINE
8
0
66
1
40
0.016000
41
0.016000
0
VERTEX
8
0
10
-4.100000
20
-1.400000
0
VERTEX
8
0
10
-3.900000
20
-1.400000
0
SEQEND
8
0
0
TEXT
8
0
10
-3.850000
20
-1.440000
40
0.080000
41
1.000000
1
VREF
0
TEXT
8
0
10
-4.160000
20
-1.390000
40
0.080000
41
1.000000
1
63
0
POLYLINE
8
0
66
1
40
0.016000
41
0.016000
0
VERTEX
8
0
10
-4.100000
20
-2.500000
0
VERTEX
8
0
10
-3.900000
20
-2.500000
0
SEQEND
8
0
0
TEXT
8
0
10
-3.850000
20
-2.540000
40
0.080000
41
1.000000
1
VSS
0
TEXT
8
0
10
-4.080000
20
-2.490000
40
0.080000
41
1.000000
1
6
0
POLYLINE
8
0
66
1
40
0.016000
41
0.016000
0
VERTEX
8
0
10
-4.100000
20
-2.000000
0
VERTEX
8
0
10
-3.900000
20
-2.000000
0
SEQEND
8
0
0
TEXT
8
0
10
-3.850000
20
-2.040000
40
0.080000
41
1.000000
1
VSSA
0
TEXT
8
0
10
-4.160000
20
-1.990000
40
0.080000
41
1.000000
1
59
0
POLYLINE
8
0
66
1
40
0.016000
41
0.016000
0
VERTEX
8
0
10
-2.100000
20
-1.000000
0
VERTEX
8
0
10
-2.300000
20
-1.000000
0
SEQEND
8
0
0
TEXT
8
0
10
-3.550000
20
-1.040000
40
0.080000
41
1.000000
1
P1.16/TRACEPKT0
0
TEXT
8
0
10
-2.200000
20
-0.990000
40
0.080000
41
1.000000
1
16
0
POLYLINE
8
0
66
1
40
0.016000
41
0.016000
0
VERTEX
8
0
10
-2.100000
20
-1.100000
0
VERTEX
8
0
10
-2.300000
20
-1.100000
0
SEQEND
8
0
0
TEXT
8
0
10
-3.550000
20
-1.140000
40
0.080000
41
1.000000
1
P1.17/TRACEPKT1
0
TEXT
8
0
10
-2.200000
20
-1.090000
40
0.080000
41
1.000000
1
12
0
POLYLINE
8
0
66
1
40
0.016000
41
0.016000
0
VERTEX
8
0
10
-2.100000
20
-1.200000
0
VERTEX
8
0
10
-2.300000
20
-1.200000
0
SEQEND
8
0
0
TEXT
8
0
10
-3.550000
20
-1.240000
40
0.080000
41
1.000000
1
P1.18/TRACEPKT2
0
TEXT
8
0
10
-2.200000
20
-1.190000
40
0.080000
41
1.000000
1
8
0
POLYLINE
8
0
66
1
40
0.016000
41
0.016000
0
VERTEX
8
0
10
-2.100000
20
-1.300000
0
VERTEX
8
0
10
-2.300000
20
-1.300000
0
SEQEND
8
0
0
TEXT
8
0
10
-3.550000
20
-1.340000
40
0.080000
41
1.000000
1
P1.19/TRACEPKT3
0
TEXT
8
0
10
-2.200000
20
-1.290000
40
0.080000
41
1.000000
1
4
0
POLYLINE
8
0
66
1
40
0.016000
41
0.016000
0
VERTEX
8
0
10
-2.100000
20
-1.400000
0
VERTEX
8
0
10
-2.300000
20
-1.400000
0
SEQEND
8
0
0
TEXT
8
0
10
-3.550000
20
-1.440000
40
0.080000
41
1.000000
1
P1.20/TRACESYNC
0
TEXT
8
0
10
-2.200000
20
-1.390000
40
0.080000
41
1.000000
1
48
0
POLYLINE
8
0
66
1
40
0.016000
41
0.016000
0
VERTEX
8
0
10
-2.100000
20
-1.500000
0
VERTEX
8
0
10
-2.300000
20
-1.500000
0
SEQEND
8
0
0
TEXT
8
0
10
-3.550000
20
-1.540000
40
0.080000
41
1.000000
1
P1.21/PIPESTAT0
0
TEXT
8
0
10
-2.200000
20
-1.490000
40
0.080000
41
1.000000
1
44
0
POLYLINE
8
0
66
1
40
0.016000
41
0.016000
0
VERTEX
8
0
10
-2.100000
20
-1.600000
0
VERTEX
8
0
10
-2.300000
20
-1.600000
0
SEQEND
8
0
0
TEXT
8
0
10
-3.550000
20
-1.640000
40
0.080000
41
1.000000
1
P1.22/PIPESTAT1
0
TEXT
8
0
10
-2.200000
20
-1.590000
40
0.080000
41
1.000000
1
40
0
POLYLINE
8
0
66
1
40
0.016000
41
0.016000
0
VERTEX
8
0
10
-2.100000
20
-1.700000
0
VERTEX
8
0
10
-2.300000
20
-1.700000
0
SEQEND
8
0
0
TEXT
8
0
10
-3.550000
20
-1.740000
40
0.080000
41
1.000000
1
P1.23/PIPESTAT2
0
TEXT
8
0
10
-2.200000
20
-1.690000
40
0.080000
41
1.000000
1
36
0
POLYLINE
8
0
66
1
40
0.016000
41
0.016000
0
VERTEX
8
0
10
-2.100000
20
-1.800000
0
VERTEX
8
0
10
-2.300000
20
-1.800000
0
SEQEND
8
0
0
TEXT
8
0
10
-3.470000
20
-1.840000
40
0.080000
41
1.000000
1
P1.24/TRACECLK
0
TEXT
8
0
10
-2.200000
20
-1.790000
40
0.080000
41
1.000000
1
32
0
POLYLINE
8
0
66
1
40
0.016000
41
0.016000
0
VERTEX
8
0
10
-2.100000
20
-1.900000
0
VERTEX
8
0
10
-2.300000
20
-1.900000
0
SEQEND
8
0
0
TEXT
8
0
10
-3.310000
20
-1.940000
40
0.080000
41
1.000000
1
P1.25/EXTIN0
0
TEXT
8
0
10
-2.200000
20
-1.890000
40
0.080000
41
1.000000
1
28
0
POLYLINE
8
0
66
1
40
0.016000
41
0.016000
0
VERTEX
8
0
10
-2.100000
20
-2.000000
0
VERTEX
8
0
10
-2.300000
20
-2.000000
0
SEQEND
8
0
0
TEXT
8
0
10
-3.150000
20
-2.040000
40
0.080000
41
1.000000
1
P1.26/RTCK
0
TEXT
8
0
10
-2.200000
20
-1.990000
40
0.080000
41
1.000000
1
24
0
POLYLINE
8
0
66
1
40
0.016000
41
0.016000
0
VERTEX
8
0
10
-2.100000
20
-2.100000
0
VERTEX
8
0
10
-2.300000
20
-2.100000
0
SEQEND
8
0
0
TEXT
8
0
10
-3.070000
20
-2.140000
40
0.080000
41
1.000000
1
P1.27/TDO
0
TEXT
8
0
10
-2.200000
20
-2.090000
40
0.080000
41
1.000000
1
64
0
POLYLINE
8
0
66
1
40
0.016000
41
0.016000
0
VERTEX
8
0
10
-2.100000
20
-2.200000
0
VERTEX
8
0
10
-2.300000
20
-2.200000
0
SEQEND
8
0
0
TEXT
8
0
10
-3.070000
20
-2.240000
40
0.080000
41
1.000000
1
P1.28/TDI
0
TEXT
8
0
10
-2.200000
20
-2.190000
40
0.080000
41
1.000000
1
60
0
POLYLINE
8
0
66
1
40
0.016000
41
0.016000
0
VERTEX
8
0
10
-2.100000
20
-2.300000
0
VERTEX
8
0
10
-2.300000
20
-2.300000
0
SEQEND
8
0
0
TEXT
8
0
10
-3.070000
20
-2.340000
40
0.080000
41
1.000000
1
P1.29/TCK
0
TEXT
8
0
10
-2.200000
20
-2.290000
40
0.080000
41
1.000000
1
56
0
POLYLINE
8
0
66
1
40
0.016000
41
0.016000
0
VERTEX
8
0
10
-2.100000
20
-2.400000
0
VERTEX
8
0
10
-2.300000
20
-2.400000
0
SEQEND
8
0
0
TEXT
8
0
10
-3.070000
20
-2.440000
40
0.080000
41
1.000000
1
P1.30/TMS
0
TEXT
8
0
10
-2.200000
20
-2.390000
40
0.080000
41
1.000000
1
52
0
POLYLINE
8
0
66
1
40
0.016000
41
0.016000
0
VERTEX
8
0
10
-2.100000
20
-2.500000
0
VERTEX
8
0
10
-2.300000
20
-2.500000
0
SEQEND
8
0
0
TEXT
8
0
10
-3.150000
20
-2.540000
40
0.080000
41
1.000000
1
P1.31/TRST
0
TEXT
8
0
10
-2.200000
20
-2.490000
40
0.080000
41
1.000000
1
20
0
POLYLINE
8
0
66
1
40
0.016000
41
0.016000
0
VERTEX
8
0
10
-4.100000
20
-1.700000
0
VERTEX
8
0
10
-3.900000
20
-1.700000
0
SEQEND
8
0
0
TEXT
8
0
10
-3.850000
20
-1.740000
40
0.080000
41
1.000000
1
V3
0
TEXT
8
0
10
-4.160000
20
-1.690000
40
0.080000
41
1.000000
1
43
0
POLYLINE
8
0
66
1
40
0.016000
41
0.016000
0
VERTEX
8
0
10
-4.100000
20
-1.600000
0
VERTEX
8
0
10
-3.900000
20
-1.600000
0
SEQEND
8
0
0
TEXT
8
0
10
-3.850000
20
-1.640000
40
0.080000
41
1.000000
1
V3
0
TEXT
8
0
10
-4.160000
20
-1.590000
40
0.080000
41
1.000000
1
51
0
POLYLINE
8
0
66
1
40
0.016000
41
0.016000
0
VERTEX
8
0
10
-4.100000
20
-2.400000
0
VERTEX
8
0
10
-3.900000
20
-2.400000
0
SEQEND
8
0
0
TEXT
8
0
10
-3.850000
20
-2.440000
40
0.080000
41
1.000000
1
VSS
0
TEXT
8
0
10
-4.160000
20
-2.390000
40
0.080000
41
1.000000
1
18
0
POLYLINE
8
0
66
1
40
0.016000
41
0.016000
0
VERTEX
8
0
10
-4.100000
20
-2.300000
0
VERTEX
8
0
10
-3.900000
20
-2.300000
0
SEQEND
8
0
0
TEXT
8
0
10
-3.850000
20
-2.340000
40
0.080000
41
1.000000
1
VSS
0
TEXT
8
0
10
-4.160000
20
-2.290000
40
0.080000
41
1.000000
1
25
0
POLYLINE
8
0
66
1
40
0.016000
41
0.016000
0
VERTEX
8
0
10
-4.100000
20
-2.200000
0
VERTEX
8
0
10
-3.900000
20
-2.200000
0
SEQEND
8
0
0
TEXT
8
0
10
-3.850000
20
-2.240000
40
0.080000
41
1.000000
1
VSS
0
TEXT
8
0
10
-4.160000
20
-2.190000
40
0.080000
41
1.000000
1
42
0
POLYLINE
8
0
66
1
40
0.016000
41
0.016000
0
VERTEX
8
0
10
-4.100000
20
-2.100000
0
VERTEX
8
0
10
-3.900000
20
-2.100000
0
SEQEND
8
0
0
TEXT
8
0
10
-3.850000
20
-2.140000
40
0.080000
41
1.000000
1
VSS
0
TEXT
8
0
10
-4.160000
20
-2.090000
40
0.080000
41
1.000000
1
50
0
POLYLINE
8
0
66
1
40
0.016000
41
0.016000
0
VERTEX
8
0
10
-4.100000
20
2.100000
0
VERTEX
8
0
10
-3.900000
20
2.100000
0
SEQEND
8
0
0
TEXT
8
0
10
-3.850000
20
2.060000
40
0.080000
41
1.000000
1
RTXC1
0
TEXT
8
0
10
-4.080000
20
2.110000
40
0.080000
41
1.000000
1
3
0
POLYLINE
8
0
66
1
40
0.016000
41
0.016000
0
VERTEX
8
0
10
-4.100000
20
2.000000
0
VERTEX
8
0
10
-3.900000
20
2.000000
0
SEQEND
8
0
0
TEXT
8
0
10
-3.850000
20
1.960000
40
0.080000
41
1.000000
1
RTXC2
0
TEXT
8
0
10
-4.080000
20
2.010000
40
0.080000
41
1.000000
1
5
0
POLYLINE
8
0
66
1
40
0.016000
41
0.016000
0
VERTEX
8
0
10
-4.100000
20
-1.500000
0
VERTEX
8
0
10
-3.900000
20
-1.500000
0
SEQEND
8
0
0
TEXT
8
0
10
-3.850000
20
-1.540000
40
0.080000
41
1.000000
1
V3A
0
TEXT
8
0
10
-4.080000
20
-1.490000
40
0.080000
41
1.000000
1
7
0
POLYLINE
8
0
66
1
40
0.016000
41
0.016000
0
VERTEX
8
0
10
-4.100000
20
-1.200000
0
VERTEX
8
0
10
-3.900000
20
-1.200000
0
SEQEND
8
0
0
TEXT
8
0
10
-3.850000
20
-1.240000
40
0.080000
41
1.000000
1
VBAT
0
TEXT
8
0
10
-4.160000
20
-1.190000
40
0.080000
41
1.000000
1
49
0
POLYLINE
8
0
66
1
40
0.016000
41
0.016000
0
VERTEX
8
0
10
-2.100000
20
-0.800000
0
VERTEX
8
0
10
-2.300000
20
-0.800000
0
SEQEND
8
0
0
TEXT
8
0
10
-2.750000
20
-0.840000
40
0.080000
41
1.000000
1
P0.31
0
TEXT
8
0
10
-2.200000
20
-0.790000
40
0.080000
41
1.000000
1
17
0
POLYLINE
8
0
66
1
40
0.016000
41
0.016000
0
VERTEX
8
0
10
-2.100000
20
-0.300000
0
VERTEX
8
0
10
-2.300000
20
-0.300000
0
SEQEND
8
0
0
TEXT
8
0
10
-3.230000
20
-0.340000
40
0.080000
41
1.000000
1
P0.26/AD0.5
0
TEXT
8
0
10
-2.200000
20
-0.290000
40
0.080000
41
1.000000
1
10
0
TEXT
8
0
10
-3.908000
20
2.523000
40
0.120000
41
0.666667
1
U1
0
TEXT
8
0
10
-3.908000
20
-2.698000
40
0.080000
41
1.000000
1
LPC2138
0
CIRCLE
8
0
10
-4.100000
20
-2.300000
40
0.020000
0
CIRCLE
8
0
10
-4.100000
20
-2.100000
40
0.020000
0
CIRCLE
8
0
10
-4.100000
20
-2.200000
40
0.020000
0
CIRCLE
8
0
10
-4.100000
20
-2.400000
40
0.020000
0
CIRCLE
8
0
10
-4.100000
20
-2.500000
40
0.020000
0
POLYLINE
8
0
66
1
40
0.016000
41
0.016000
0
VERTEX
8
0
10
-4.300000
20
-2.700000
0
VERTEX
8
0
10
-4.300000
20
-2.800000
0
SEQEND
8
0
0
POLYLINE
8
0
66
1
40
0.016000
41
0.016000
0
VERTEX
8
0
10
-4.400000
20
-2.800000
0
VERTEX
8
0
10
-4.200000
20
-2.800000
0
SEQEND
8
0
0
POLYLINE
8
0
66
1
40
0.016000
41
0.016000
0
VERTEX
8
0
10
-4.350000
20
-2.850000
0
VERTEX
8
0
10
-4.250000
20
-2.850000
0
SEQEND
8
0
0
POLYLINE
8
0
66
1
40
0.016000
41
0.016000
0
VERTEX
8
0
10
-4.310000
20
-2.900000
0
VERTEX
8
0
10
-4.290000
20
-2.900000
0
SEQEND
8
0
0
CIRCLE
8
0
10
-4.300000
20
-2.700000
40
0.020000
0
CIRCLE
8
0
10
-4.100000
20
-1.700000
40
0.020000
0
CIRCLE
8
0
10
-4.100000
20
-1.600000
40
0.020000
0
CIRCLE
8
0
10
-4.100000
20
-1.500000
40
0.020000
0
CIRCLE
8
0
10
-4.100000
20
-1.400000
40
0.020000
0
CIRCLE
8
0
10
-4.100000
20
-1.200000
40
0.020000
0
POLYLINE
8
0
66
1
40
0.010000
41
0.010000
0
VERTEX
8
0
10
1.900000
20
-0.520000
0
VERTEX
8
0
10
3.700000
20
-0.520000
0
VERTEX
8
0
10
3.700000
20
-0.080000
0
VERTEX
8
0
10
1.900000
20
-0.080000
0
VERTEX
8
0
10
1.900000
20
-0.520000
0
SEQEND
8
0
0
POLYLINE
8
0
66
1
40
0.016000
41
0.016000
0
VERTEX
8
0
10
3.500000
20
-1.000000
0
VERTEX
8
0
10
3.500000
20
-0.800000
0
SEQEND
8
0
0
TEXT
8
0
10
3.540000
20
-0.750000
40
0.080000
41
1.000000
50
90.000000
1
D7
0
TEXT
8
0
10
3.490000
20
-1.060000
40
0.080000
41
1.000000
50
90.000000
1
14
0
POLYLINE
8
0
66
1
40
0.016000
41
0.016000
0
VERTEX
8
0
10
3.400000
20
-1.000000
0
VERTEX
8
0
10
3.400000
20
-0.800000
0
SEQEND
8
0
0
TEXT
8
0
10
3.440000
20
-0.750000
40
0.080000
41
1.000000
50
90.000000
1
D6
0
TEXT
8
0
10
3.390000
20
-1.060000
40
0.080000
41
1.000000
50
90.000000
1
13
0
POLYLINE
8
0
66
1
40
0.016000
41
0.016000
0
VERTEX
8
0
10
3.300000
20
-1.000000
0
VERTEX
8
0
10
3.300000
20
-0.800000
0
SEQEND
8
0
0
TEXT
8
0
10
3.340000
20
-0.750000
40
0.080000
41
1.000000
50
90.000000
1
D5
0
TEXT
8
0
10
3.290000
20
-1.060000
40
0.080000
41
1.000000
50
90.000000
1
12
0
POLYLINE
8
0
66
1
40
0.016000
41
0.016000
0
VERTEX
8
0
10
3.200000
20
-1.000000
0
VERTEX
8
0
10
3.200000
20
-0.800000
0
SEQEND
8
0
0
TEXT
8
0
10
3.240000
20
-0.750000
40
0.080000
41
1.000000
50
90.000000
1
D4
0
TEXT
8
0
10
3.190000
20
-1.060000
40
0.080000
41
1.000000
50
90.000000
1
11
0
POLYLINE
8
0
66
1
40
0.016000
41
0.016000
0
VERTEX
8
0
10
3.100000
20
-1.000000
0
VERTEX
8
0
10
3.100000
20
-0.800000
0
SEQEND
8
0
0
TEXT
8
0
10
3.140000
20
-0.750000
40
0.080000
41
1.000000
50
90.000000
1
D3
0
TEXT
8
0
10
3.090000
20
-1.060000
40
0.080000
41
1.000000
50
90.000000
1
10
0
POLYLINE
8
0
66
1
40
0.016000
41
0.016000
0
VERTEX
8
0
10
3.000000
20
-1.000000
0
VERTEX
8
0
10
3.000000
20
-0.800000
0
SEQEND
8
0
0
TEXT
8
0
10
3.040000
20
-0.750000
40
0.080000
41
1.000000
50
90.000000
1
D2
0
TEXT
8
0
10
2.990000
20
-0.980000
40
0.080000
41
1.000000
50
90.000000
1
9
0
POLYLINE
8
0
66
1
40
0.016000
41
0.016000
0
VERTEX
8
0
10
2.900000
20
-1.000000
0
VERTEX
8
0
10
2.900000
20
-0.800000
0
SEQEND
8
0
0
TEXT
8
0
10
2.940000
20
-0.750000
40
0.080000
41
1.000000
50
90.000000
1
D1
0
TEXT
8
0
10
2.890000
20
-0.980000
40
0.080000
41
1.000000
50
90.000000
1
8
0
POLYLINE
8
0
66
1
40
0.016000
41
0.016000
0
VERTEX
8
0
10
2.800000
20
-1.000000
0
VERTEX
8
0
10
2.800000
20
-0.800000
0
SEQEND
8
0
0
TEXT
8
0
10
2.840000
20
-0.750000
40
0.080000
41
1.000000
50
90.000000
1
D0
0
TEXT
8
0
10
2.790000
20
-0.980000
40
0.080000
41
1.000000
50
90.000000
1
7
0
POLYLINE
8
0
66
1
40
0.016000
41
0.016000
0
VERTEX
8
0
10
2.600000
20
-1.000000
0
VERTEX
8
0
10
2.600000
20
-0.800000
0
SEQEND
8
0
0
TEXT
8
0
10
2.640000
20
-0.750000
40
0.080000
41
1.000000
50
90.000000
1
E
0
TEXT
8
0
10
2.590000
20
-0.980000
40
0.080000
41
1.000000
50
90.000000
1
6
0
POLYLINE
8
0
66
1
40
0.016000
41
0.016000
0
VERTEX
8
0
10
2.500000
20
-1.000000
0
VERTEX
8
0
10
2.500000
20
-0.800000
0
SEQEND
8
0
0
TEXT
8
0
10
2.540000
20
-0.750000
40
0.080000
41
1.000000
50
90.000000
1
RW
0
TEXT
8
0
10
2.490000
20
-0.980000
40
0.080000
41
1.000000
50
90.000000
1
5
0
POLYLINE
8
0
66
1
40
0.016000
41
0.016000
0
VERTEX
8
0
10
2.400000
20
-1.000000
0
VERTEX
8
0
10
2.400000
20
-0.800000
0
SEQEND
8
0
0
TEXT
8
0
10
2.440000
20
-0.750000
40
0.080000
41
1.000000
50
90.000000
1
RS
0
TEXT
8
0
10
2.390000
20
-0.980000
40
0.080000
41
1.000000
50
90.000000
1
4
0
POLYLINE
8
0
66
1
40
0.016000
41
0.016000
0
VERTEX
8
0
10
2.000000
20
-1.000000
0
VERTEX
8
0
10
2.000000
20
-0.800000
0
SEQEND
8
0
0
TEXT
8
0
10
2.040000
20
-0.750000
40
0.080000
41
1.000000
50
90.000000
1
VSS
0
TEXT
8
0
10
1.990000
20
-0.980000
40
0.080000
41
1.000000
50
90.000000
1
1
0
POLYLINE
8
0
66
1
40
0.016000
41
0.016000
0
VERTEX
8
0
10
2.100000
20
-1.000000
0
VERTEX
8
0
10
2.100000
20
-0.800000
0
SEQEND
8
0
0
TEXT
8
0
10
2.140000
20
-0.750000
40
0.080000
41
1.000000
50
90.000000
1
VDD
0
TEXT
8
0
10
2.090000
20
-0.980000
40
0.080000
41
1.000000
50
90.000000
1
2
0
POLYLINE
8
0
66
1
40
0.016000
41
0.016000
0
VERTEX
8
0
10
2.200000
20
-1.000000
0
VERTEX
8
0
10
2.200000
20
-0.800000
0
SEQEND
8
0
0
TEXT
8
0
10
2.240000
20
-0.750000
40
0.080000
41
1.000000
50
90.000000
1
VEE
0
TEXT
8
0
10
2.190000
20
-0.980000
40
0.080000
41
1.000000
50
90.000000
1
3
0
TEXT
8
0
10
1.792000
20
0.223000
40
0.120000
41
0.666667
1
LCD1
0
TEXT
8
0
10
1.792000
20
0.118000
40
0.080000
41
1.000000
1
LM016L
0
POLYLINE
8
0
66
1
40
0.016000
41
0.016000
0
VERTEX
8
0
10
0.700000
20
1.300000
0
VERTEX
8
0
10
1.500000
20
1.300000
0
VERTEX
8
0
10
1.500000
20
2.100000
0
VERTEX
8
0
10
0.700000
20
2.100000
0
VERTEX
8
0
10
0.700000
20
1.300000
0
SEQEND
8
0
0
POLYLINE
8
0
66
1
40
0.016000
41
0.016000
0
VERTEX
8
0
10
1.700000
20
2.000000
0
VERTEX
8
0
10
1.500000
20
2.000000
0
SEQEND
8
0
0
TEXT
8
0
10
1.210000
20
1.960000
40
0.080000
41
1.000000
1
CH0
0
TEXT
8
0
10
1.600000
20
2.010000
40
0.080000
41
1.000000
1
1
0
POLYLINE
8
0
66
1
40
0.016000
41
0.016000
0
VERTEX
8
0
10
1.700000
20
1.900000
0
VERTEX
8
0
10
1.500000
20
1.900000
0
SEQEND
8
0
0
TEXT
8
0
10
1.210000
20
1.860000
40
0.080000
41
1.000000
1
CH1
0
TEXT
8
0
10
1.600000
20
1.910000
40
0.080000
41
1.000000
1
2
0
POLYLINE
8
0
66
1
40
0.016000
41
0.016000
0
VERTEX
8
0
10
1.700000
20
1.800000
0
VERTEX
8
0
10
1.500000
20
1.800000
0
SEQEND
8
0
0
TEXT
8
0
10
1.210000
20
1.760000
40
0.080000
41
1.000000
1
CH2
0
TEXT
8
0
10
1.600000
20
1.810000
40
0.080000
41
1.000000
1
3
0
POLYLINE
8
0
66
1
40
0.016000
41
0.016000
0
VERTEX
8
0
10
1.700000
20
1.700000
0
VERTEX
8
0
10
1.500000
20
1.700000
0
SEQEND
8
0
0
TEXT
8
0
10
1.210000
20
1.660000
40
0.080000
41
1.000000
1
CH3
0
TEXT
8
0
10
1.600000
20
1.710000
40
0.080000
41
1.000000
1
4
0
POLYLINE
8
0
66
1
40
0.016000
41
0.016000
0
VERTEX
8
0
10
1.700000
20
1.500000
0
VERTEX
8
0
10
1.500000
20
1.500000
0
SEQEND
8
0
0
TEXT
8
0
10
1.130000
20
1.460000
40
0.080000
41
1.000000
1
VREF
0
TEXT
8
0
10
1.600000
20
1.510000
40
0.080000
41
1.000000
1
13
0
POLYLINE
8
0
66
1
40
0.016000
41
0.016000
0
VERTEX
8
0
10
0.500000
20
1.700000
0
VERTEX
8
0
10
0.700000
20
1.700000
0
SEQEND
8
0
0
TEXT
8
0
10
0.750000
20
1.660000
40
0.080000
41
1.000000
1
CS/SHDN
0
TEXT
8
0
10
0.520000
20
1.710000
40
0.080000
41
1.000000
1
8
0
POLYLINE
8
0
66
1
40
0.016000
41
0.016000
0
VERTEX
8
0
10
0.500000
20
2.000000
0
VERTEX
8
0
10
0.700000
20
2.000000
0
SEQEND
8
0
0
TEXT
8
0
10
0.750000
20
1.960000
40
0.080000
41
1.000000
1
CLK
0
TEXT
8
0
10
0.440000
20
2.010000
40
0.080000
41
1.000000
1
11
0
POLYLINE
8
0
66
1
40
0.016000
41
0.016000
0
VERTEX
8
0
10
0.500000
20
1.900000
0
VERTEX
8
0
10
0.700000
20
1.900000
0
SEQEND
8
0
0
TEXT
8
0
10
0.750000
20
1.860000
40
0.080000
41
1.000000
1
DIN
0
TEXT
8
0
10
0.520000
20
1.910000
40
0.080000
41
1.000000
1
9
0
POLYLINE
8
0
66
1
40
0.016000
41
0.016000
0
VERTEX
8
0
10
0.500000
20
1.800000
0
VERTEX
8
0
10
0.700000
20
1.800000
0
SEQEND
8
0
0
TEXT
8
0
10
0.750000
20
1.760000
40
0.080000
41
1.000000
1
DOUT
0
TEXT
8
0
10
0.440000
20
1.810000
40
0.080000
41
1.000000
1
10
0
POLYLINE
8
0
66
1
40
0.016000
41
0.016000
0
VERTEX
8
0
10
1.700000
20
1.400000
0
VERTEX
8
0
10
1.500000
20
1.400000
0
SEQEND
8
0
0
TEXT
8
0
10
1.130000
20
1.360000
40
0.080000
41
1.000000
1
AGND
0
TEXT
8
0
10
1.600000
20
1.410000
40
0.080000
41
1.000000
1
12
0
TEXT
8
0
10
0.692000
20
2.123000
40
0.120000
41
0.666667
1
U2
0
TEXT
8
0
10
0.692000
20
1.202000
40
0.080000
41
1.000000
1
MCP3204
0
CIRCLE
8
0
10
-0.700000
20
-0.500000
40
0.120416
0
POLYLINE
8
0
66
1
40
0.015000
41
0.015000
0
VERTEX
8
0
10
-0.650000
20
-0.450000
0
VERTEX
8
0
10
-0.650000
20
-0.550000
0
SEQEND
8
0
0
POLYLINE
8
0
66
1
40
0.016000
41
0.016000
0
VERTEX
8
0
10
-0.820000
20
-0.500000
0
VERTEX
8
0
10
-0.730000
20
-0.500000
0
SEQEND
8
0
0
POLYLINE
8
0
66
1
40
0.016000
41
0.016000
0
VERTEX
8
0
10
-0.650000
20
-0.500000
0
VERTEX
8
0
10
-0.580000
20
-0.500000
0
SEQEND
8
0
0
POLYLINE
8
0
66
1
40
0.015000
41
0.015000
0
VERTEX
8
0
10
-0.650000
20
-0.500000
0
VERTEX
8
0
10
-0.730000
20
-0.560000
0
VERTEX
8
0
10
-0.730000
20
-0.440000
0
VERTEX
8
0
10
-0.650000
20
-0.500000
0
SEQEND
8
0
0
POLYLINE
8
0
66
1
40
0.016000
41
0.016000
0
VERTEX
8
0
10
-0.900000
20
-0.500000
0
VERTEX
8
0
10
-0.800000
20
-0.500000
0
SEQEND
8
0
0
POLYLINE
8
0
66
1
40
0.016000
41
0.016000
0
VERTEX
8
0
10
-0.500000
20
-0.500000
0
VERTEX
8
0
10
-0.600000
20
-0.500000
0
SEQEND
8
0
0
TEXT
8
0
10
-0.828000
20
-0.357000
40
0.120000
41
0.666667
1
D1
0
TEXT
8
0
10
-0.828000
20
-0.718000
40
0.080000
41
1.000000
1
LED-YELLOW
0
CIRCLE
8
0
10
-1.000000
20
0.000000
40
0.120416
0
POLYLINE
8
0
66
1
40
0.015000
41
0.015000
0
VERTEX
8
0
10
-0.950000
20
0.050000
0
VERTEX
8
0
10
-0.950000
20
-0.050000
0
SEQEND
8
0
0
POLYLINE
8
0
66
1
40
0.016000
41
0.016000
0
VERTEX
8
0
10
-1.120000
20
0.000000
0
VERTEX
8
0
10
-1.030000
20
0.000000
0
SEQEND
8
0
0
POLYLINE
8
0
66
1
40
0.016000
41
0.016000
0
VERTEX
8
0
10
-0.950000
20
0.000000
0
VERTEX
8
0
10
-0.880000
20
0.000000
0
SEQEND
8
0
0
POLYLINE
8
0
66
1
40
0.015000
41
0.015000
0
VERTEX
8
0
10
-0.950000
20
0.000000
0
VERTEX
8
0
10
-1.030000
20
-0.060000
0
VERTEX
8
0
10
-1.030000
20
0.060000
0
VERTEX
8
0
10
-0.950000
20
0.000000
0
SEQEND
8
0
0
POLYLINE
8
0
66
1
40
0.016000
41
0.016000
0
VERTEX
8
0
10
-1.200000
20
0.000000
0
VERTEX
8
0
10
-1.100000
20
0.000000
0
SEQEND
8
0
0
POLYLINE
8
0
66
1
40
0.016000
41
0.016000
0
VERTEX
8
0
10
-0.800000
20
0.000000
0
VERTEX
8
0
10
-0.900000
20
0.000000
0
SEQEND
8
0
0
TEXT
8
0
10
-1.128000
20
0.143000
40
0.120000
41
0.666667
1
D2
0
TEXT
8
0
10
-1.128000
20
-0.218000
40
0.080000
41
1.000000
1
LED-YELLOW
0
CIRCLE
8
0
10
-1.500000
20
-0.700000
40
0.120416
0
POLYLINE
8
0
66
1
40
0.015000
41
0.015000
0
VERTEX
8
0
10
-1.450000
20
-0.650000
0
VERTEX
8
0
10
-1.450000
20
-0.750000
0
SEQEND
8
0
0
POLYLINE
8
0
66
1
40
0.016000
41
0.016000
0
VERTEX
8
0
10
-1.620000
20
-0.700000
0
VERTEX
8
0
10
-1.530000
20
-0.700000
0
SEQEND
8
0
0
POLYLINE
8
0
66
1
40
0.016000
41
0.016000
0
VERTEX
8
0
10
-1.450000
20
-0.700000
0
VERTEX
8
0
10
-1.380000
20
-0.700000
0
SEQEND
8
0
0
POLYLINE
8
0
66
1
40
0.015000
41
0.015000
0
VERTEX
8
0
10
-1.450000
20
-0.700000
0
VERTEX
8
0
10
-1.530000
20
-0.760000
0
VERTEX
8
0
10
-1.530000
20
-0.640000
0
VERTEX
8
0
10
-1.450000
20
-0.700000
0
SEQEND
8
0
0
POLYLINE
8
0
66
1
40
0.016000
41
0.016000
0
VERTEX
8
0
10
-1.700000
20
-0.700000
0
VERTEX
8
0
10
-1.600000
20
-0.700000
0
SEQEND
8
0
0
POLYLINE
8
0
66
1
40
0.016000
41
0.016000
0
VERTEX
8
0
10
-1.300000
20
-0.700000
0
VERTEX
8
0
10
-1.400000
20
-0.700000
0
SEQEND
8
0
0
TEXT
8
0
10
-1.628000
20
-0.557000
40
0.120000
41
0.666667
1
D3
0
TEXT
8
0
10
-1.628000
20
-0.918000
40
0.080000
41
1.000000
1
LED-YELLOW
0
CIRCLE
8
0
10
2.000000
20
0.600000
40
0.020000
0
POLYLINE
8
0
66
1
40
0.016000
41
0.016000
0
VERTEX
8
0
10
-0.040000
20
0.200000
0
VERTEX
8
0
10
0.040000
20
0.200000
0
VERTEX
8
0
10
0.040000
20
0.500000
0
VERTEX
8
0
10
-0.040000
20
0.500000
0
VERTEX
8
0
10
-0.040000
20
0.200000
0
SEQEND
8
0
0
POLYLINE
8
0
66
1
40
0.016000
41
0.016000
0
VERTEX
8
0
10
0.000000
20
0.600000
0
VERTEX
8
0
10
0.000000
20
0.500000
0
SEQEND
8
0
0
POLYLINE
8
0
66
1
40
0.016000
41
0.016000
0
VERTEX
8
0
10
0.000000
20
0.100000
0
VERTEX
8
0
10
0.000000
20
0.200000
0
SEQEND
8
0
0
TEXT
8
0
10
0.098000
20
0.373000
40
0.120000
41
0.666667
1
R1
0
TEXT
8
0
10
0.098000
20
0.268000
40
0.080000
41
1.000000
1
10k
0
POLYLINE
8
0
66
1
40
0.016000
41
0.016000
0
VERTEX
8
0
10
0.360000
20
0.200000
0
VERTEX
8
0
10
0.440000
20
0.200000
0
VERTEX
8
0
10
0.440000
20
0.500000
0
VERTEX
8
0
10
0.360000
20
0.500000
0
VERTEX
8
0
10
0.360000
20
0.200000
0
SEQEND
8
0
0
POLYLINE
8
0
66
1
40
0.016000
41
0.016000
0
VERTEX
8
0
10
0.400000
20
0.600000
0
VERTEX
8
0
10
0.400000
20
0.500000
0
SEQEND
8
0
0
POLYLINE
8
0
66
1
40
0.016000
41
0.016000
0
VERTEX
8
0
10
0.400000
20
0.100000
0
VERTEX
8
0
10
0.400000
20
0.200000
0
SEQEND
8
0
0
TEXT
8
0
10
0.498000
20
0.373000
40
0.120000
41
0.666667
1
R2
0
TEXT
8
0
10
0.498000
20
0.268000
40
0.080000
41
1.000000
1
10k
0
POLYLINE
8
0
66
1
40
0.016000
41
0.016000
0
VERTEX
8
0
10
3.700000
20
0.400000
0
VERTEX
8
0
10
3.700000
20
0.300000
0
SEQEND
8
0
0
POLYLINE
8
0
66
1
40
0.016000
41
0.016000
0
VERTEX
8
0
10
3.600000
20
0.300000
0
VERTEX
8
0
10
3.800000
20
0.300000
0
SEQEND
8
0
0
POLYLINE
8
0
66
1
40
0.016000
41
0.016000
0
VERTEX
8
0
10
3.650000
20
0.250000
0
VERTEX
8
0
10
3.750000
20
0.250000
0
SEQEND
8
0
0
POLYLINE
8
0
66
1
40
0.016000
41
0.016000
0
VERTEX
8
0
10
3.690000
20
0.200000
0
VERTEX
8
0
10
3.710000
20
0.200000
0
SEQEND
8
0
0
CIRCLE
8
0
10
3.700000
20
0.600000
40
0.020000
0
CIRCLE
8
0
10
3.700000
20
1.700000
40
0.200000
0
POLYLINE
8
0
66
1
40
0.016000
41
0.016000
0
VERTEX
8
0
10
3.700000
20
1.880000
0
VERTEX
8
0
10
3.650000
20
1.850000
0
VERTEX
8
0
10
3.750000
20
1.800000
0
VERTEX
8
0
10
3.650000
20
1.750000
0
VERTEX
8
0
10
3.750000
20
1.700000
0
VERTEX
8
0
10
3.650000
20
1.650000
0
VERTEX
8
0
10
3.750000
20
1.600000
0
VERTEX
8
0
10
3.650000
20
1.550000
0
VERTEX
8
0
10
3.700000
20
1.520000
0
SEQEND
8
0
0
POLYLINE
8
0
66
1
40
0.016000
41
0.016000
0
VERTEX
8
0
10
3.700000
20
1.880000
0
VERTEX
8
0
10
3.700000
20
1.900000
0
SEQEND
8
0
0
POLYLINE
8
0
66
1
40
0.016000
41
0.016000
0
VERTEX
8
0
10
3.700000
20
1.520000
0
VERTEX
8
0
10
3.700000
20
1.500000
0
SEQEND
8
0
0
POLYLINE
8
0
66
1
40
0.006000
41
0.006000
0
VERTEX
8
0
10
2.700000
20
1.750000
0
VERTEX
8
0
10
2.700000
20
1.650000
0
VERTEX
8
0
10
2.800000
20
1.650000
0
VERTEX
8
0
10
2.800000
20
1.750000
0
VERTEX
8
0
10
2.700000
20
1.750000
0
SEQEND
8
0
0
POLYLINE
8
0
66
1
40
0.006000
41
0.006000
0
VERTEX
8
0
10
2.800000
20
1.750000
0
VERTEX
8
0
10
2.900000
20
1.850000
0
VERTEX
8
0
10
2.889777
20
1.847015
0
VERTEX
8
0
10
2.880322
20
1.838428
0
VERTEX
8
0
10
2.871820
20
1.824786
0
VERTEX
8
0
10
2.864453
20
1.806641
0
VERTEX
8
0
10
2.858405
20
1.784540
0
VERTEX
8
0
10
2.853857
20
1.759033
0
VERTEX
8
0
10
2.850995
20
1.730670
0
VERTEX
8
0
10
2.850000
20
1.700000
0
VERTEX
8
0
10
2.850995
20
1.669330
0
VERTEX
8
0
10
2.853857
20
1.640967
0
VERTEX
8
0
10
2.858405
20
1.615460
0
VERTEX
8
0
10
2.864453
20
1.593359
0
VERTEX
8
0
10
2.871820
20
1.575213
0
VERTEX
8
0
10
2.880322
20
1.561572
0
VERTEX
8
0
10
2.889777
20
1.552985
0
VERTEX
8
0
10
2.900000
20
1.550000
0
VERTEX
8
0
10
2.800000
20
1.650000
0
VERTEX
8
0
10
2.800000
20
1.750000
0
SEQEND
8
0
0
POLYLINE
8
0
66
1
40
0.016000
41
0.016000
0
VERTEX
8
0
10
2.900000
20
1.850000
0
VERTEX
8
0
10
2.889777
20
1.847015
0
VERTEX
8
0
10
2.880322
20
1.838428
0
VERTEX
8
0
10
2.871820
20
1.824786
0
VERTEX
8
0
10
2.864453
20
1.806641
0
VERTEX
8
0
10
2.858405
20
1.784540
0
VERTEX
8
0
10
2.853857
20
1.759033
0
VERTEX
8
0
10
2.850995
20
1.730670
0
VERTEX
8
0
10
2.850000
20
1.700000
0
VERTEX
8
0
10
2.850995
20
1.669330
0
VERTEX
8
0
10
2.853857
20
1.640967
0
VERTEX
8
0
10
2.858405
20
1.615460
0
VERTEX
8
0
10
2.864453
20
1.593359
0
VERTEX
8
0
10
2.871820
20
1.575213
0
VERTEX
8
0
10
2.880322
20
1.561572
0
VERTEX
8
0
10
2.889777
20
1.552985
0
VERTEX
8
0
10
2.900000
20
1.550000
0
VERTEX
8
0
10
2.910224
20
1.552985
0
VERTEX
8
0
10
2.919678
20
1.561572
0
VERTEX
8
0
10
2.928180
20
1.575213
0
VERTEX
8
0
10
2.935547
20
1.593359
0
VERTEX
8
0
10
2.941595
20
1.615460
0
VERTEX
8
0
10
2.946143
20
1.640967
0
VERTEX
8
0
10
2.949005
20
1.669330
0
VERTEX
8
0
10
2.950000
20
1.700000
0
VERTEX
8
0
10
2.949005
20
1.730670
0
VERTEX
8
0
10
2.946143
20
1.759033
0
VERTEX
8
0
10
2.941595
20
1.784540
0
VERTEX
8
0
10
2.935547
20
1.806641
0
VERTEX
8
0
10
2.928180
20
1.824786
0
VERTEX
8
0
10
2.919678
20
1.838428
0
VERTEX
8
0
10
2.910224
20
1.847015
0
VERTEX
8
0
10
2.900000
20
1.850000
0
SEQEND
8
0
0
POLYLINE
8
0
66
1
40
0.005000
41
0.005000
0
VERTEX
8
0
10
2.860000
20
1.720000
0
VERTEX
8
0
10
2.871807
20
1.719228
0
VERTEX
8
0
10
2.881328
20
1.717109
0
VERTEX
8
0
10
2.887685
20
1.713935
0
VERTEX
8
0
10
2.890000
20
1.710000
0
VERTEX
8
0
10
2.887685
20
1.702129
0
VERTEX
8
0
10
2.881328
20
1.695781
0
VERTEX
8
0
10
2.871807
20
1.691543
0
VERTEX
8
0
10
2.860000
20
1.690000
0
VERTEX
8
0
10
2.860000
20
1.720000
0
SEQEND
8
0
0
POLYLINE
8
0
66
1
40
0.006000
41
0.006000
0
VERTEX
8
0
10
2.740000
20
1.750000
0
VERTEX
8
0
10
2.770000
20
1.750000
0
VERTEX
8
0
10
2.770000
20
1.770000
0
VERTEX
8
0
10
2.740000
20
1.770000
0
VERTEX
8
0
10
2.740000
20
1.750000
0
SEQEND
8
0
0
POLYLINE
8
0
66
1
40
0.016000
41
0.016000
0
VERTEX
8
0
10
3.700000
20
2.000000
0
VERTEX
8
0
10
3.700000
20
1.900000
0
SEQEND
8
0
0
TEXT
8
0
10
3.790000
20
2.000000
40
0.080000
41
1.000000
50
90.000000
1
1
0
POLYLINE
8
0
66
1
40
0.016000
41
0.016000
0
VERTEX
8
0
10
3.700000
20
1.400000
0
VERTEX
8
0
10
3.700000
20
1.500000
0
SEQEND
8
0
0
TEXT
8
0
10
3.790000
20
1.320000
40
0.080000
41
1.000000
50
90.000000
1
2
0
CIRCLE
8
0
10
2.600000
20
1.750000
40
0.040000
0
POLYLINE
8
0
66
1
40
0.008000
41
0.008000
0
VERTEX
8
0
10
2.600000
20
1.770000
0
VERTEX
8
0
10
2.590000
20
1.760000
0
SEQEND
8
0
0
POLYLINE
8
0
66
1
40
0.008000
41
0.008000
0
VERTEX
8
0
10
2.600000
20
1.770000
0
VERTEX
8
0
10
2.610000
20
1.760000
0
SEQEND
8
0
0
POLYLINE
8
0
66
1
40
0.008000
41
0.008000
0
VERTEX
8
0
10
2.600000
20
1.770000
0
VERTEX
8
0
10
2.600000
20
1.730000
0
SEQEND
8
0
0
CIRCLE
8
0
10
2.600000
20
1.650000
40
0.040000
0
POLYLINE
8
0
66
1
40
0.008000
41
0.008000
0
VERTEX
8
0
10
2.600000
20
1.630000
0
VERTEX
8
0
10
2.590000
20
1.640000
0
SEQEND
8
0
0
POLYLINE
8
0
66
1
40
0.008000
41
0.008000
0
VERTEX
8
0
10
2.600000
20
1.630000
0
VERTEX
8
0
10
2.610000
20
1.640000
0
SEQEND
8
0
0
POLYLINE
8
0
66
1
40
0.008000
41
0.008000
0
VERTEX
8
0
10
2.600000
20
1.630000
0
VERTEX
8
0
10
2.600000
20
1.670000
0
SEQEND
8
0
0
TEXT
8
0
10
3.958000
20
1.773000
40
0.120000
41
0.666667
1
LDR1
0
TEXT
8
0
10
3.958000
20
1.668000
40
0.080000
41
1.000000
1
TORCH_LDR
0
CIRCLE
8
0
10
0.400000
20
1.120000
40
0.030000
0
CIRCLE
8
0
10
0.400000
20
0.880000
40
0.030000
0
POLYLINE
8
0
66
1
40
0.016000
41
0.016000
0
VERTEX
8
0
10
0.480000
20
0.860000
0
VERTEX
8
0
10
0.480000
20
1.140000
0
SEQEND
8
0
0
POLYLINE
8
0
66
1
40
0.016000
41
0.016000
0
VERTEX
8
0
10
0.480000
20
0.920000
0
VERTEX
8
0
10
0.530000
20
0.920000
0
VERTEX
8
0
10
0.530000
20
1.080000
0
VERTEX
8
0
10
0.480000
20
1.080000
0
VERTEX
8
0
10
0.480000
20
0.920000
0
SEQEND
8
0
0
POLYLINE
8
0
66
1
40
0.016000
41
0.016000
0
VERTEX
8
0
10
0.400000
20
0.750000
0
VERTEX
8
0
10
0.400000
20
0.850000
0
SEQEND
8
0
0
POLYLINE
8
0
66
1
40
0.016000
41
0.016000
0
VERTEX
8
0
10
0.400000
20
1.250000
0
VERTEX
8
0
10
0.400000
20
1.150000
0
SEQEND
8
0
0
CIRCLE
8
0
10
0.500000
20
1.200000
40
0.040000
0
POLYLINE
8
0
66
1
40
0.008000
41
0.008000
0
VERTEX
8
0
10
0.480000
20
1.200000
0
VERTEX
8
0
10
0.520000
20
1.200000
0
SEQEND
8
0
0
POLYLINE
8
0
66
1
40
0.008000
41
0.008000
0
VERTEX
8
0
10
0.480000
20
1.200000
0
VERTEX
8
0
10
0.490000
20
1.190000
0
SEQEND
8
0
0
POLYLINE
8
0
66
1
40
0.008000
41
0.008000
0
VERTEX
8
0
10
0.480000
20
1.200000
0
VERTEX
8
0
10
0.490000
20
1.210000
0
SEQEND
8
0
0
POLYLINE
8
0
66
1
40
0.008000
41
0.008000
0
VERTEX
8
0
10
0.510000
20
1.190000
0
VERTEX
8
0
10
0.520000
20
1.200000
0
VERTEX
8
0
10
0.510000
20
1.210000
0
SEQEND
8
0
0
CIRCLE
8
0
10
-0.200000
20
-0.800000
40
0.020000
0
CIRCLE
8
0
10
-0.200000
20
-0.500000
40
0.020000
0
CIRCLE
8
0
10
0.000000
20
-0.800000
40
0.020000
0
CIRCLE
8
0
10
0.400000
20
-0.800000
40
0.020000
0
CIRCLE
8
0
10
0.000000
20
0.880000
40
0.030000
0
CIRCLE
8
0
10
0.000000
20
1.120000
40
0.030000
0
POLYLINE
8
0
66
1
40
0.016000
41
0.016000
0
VERTEX
8
0
10
0.080000
20
1.140000
0
VERTEX
8
0
10
0.080000
20
0.860000
0
SEQEND
8
0
0
POLYLINE
8
0
66
1
40
0.016000
41
0.016000
0
VERTEX
8
0
10
0.080000
20
0.920000
0
VERTEX
8
0
10
0.130000
20
0.920000
0
VERTEX
8
0
10
0.130000
20
1.080000
0
VERTEX
8
0
10
0.080000
20
1.080000
0
VERTEX
8
0
10
0.080000
20
0.920000
0
SEQEND
8
0
0
POLYLINE
8
0
66
1
40
0.016000
41
0.016000
0
VERTEX
8
0
10
0.000000
20
1.250000
0
VERTEX
8
0
10
0.000000
20
1.150000
0
SEQEND
8
0
0
POLYLINE
8
0
66
1
40
0.016000
41
0.016000
0
VERTEX
8
0
10
0.000000
20
0.750000
0
VERTEX
8
0
10
0.000000
20
0.850000
0
SEQEND
8
0
0
CIRCLE
8
0
10
0.100000
20
0.800000
40
0.040000
0
POLYLINE
8
0
66
1
40
0.008000
41
0.008000
0
VERTEX
8
0
10
0.080000
20
0.800000
0
VERTEX
8
0
10
0.120000
20
0.800000
0
SEQEND
8
0
0
POLYLINE
8
0
66
1
40
0.008000
41
0.008000
0
VERTEX
8
0
10
0.080000
20
0.800000
0
VERTEX
8
0
10
0.090000
20
0.810000
0
SEQEND
8
0
0
POLYLINE
8
0
66
1
40
0.008000
41
0.008000
0
VERTEX
8
0
10
0.080000
20
0.800000
0
VERTEX
8
0
10
0.090000
20
0.790000
0
SEQEND
8
0
0
POLYLINE
8
0
66
1
40
0.008000
41
0.008000
0
VERTEX
8
0
10
0.110000
20
0.810000
0
VERTEX
8
0
10
0.120000
20
0.800000
0
VERTEX
8
0
10
0.110000
20
0.790000
0
SEQEND
8
0
0
CIRCLE
8
0
10
0.000000
20
0.700000
40
0.020000
0
CIRCLE
8
0
10
0.500000
20
0.700000
40
0.020000
0
POLYLINE
8
0
66
1
40
0.016000
41
0.016000
0
VERTEX
8
0
10
-0.050000
20
1.400000
0
VERTEX
8
0
10
0.000000
20
1.500000
0
VERTEX
8
0
10
0.050000
20
1.400000
0
VERTEX
8
0
10
-0.050000
20
1.400000
0
SEQEND
8
0
0
POLYLINE
8
0
66
1
40
0.016000
41
0.016000
0
VERTEX
8
0
10
0.000000
20
1.300000
0
VERTEX
8
0
10
0.000000
20
1.500000
0
SEQEND
8
0
0
POLYLINE
8
0
66
1
40
0.016000
41
0.016000
0
VERTEX
8
0
10
0.350000
20
1.500000
0
VERTEX
8
0
10
0.400000
20
1.600000
0
VERTEX
8
0
10
0.450000
20
1.500000
0
VERTEX
8
0
10
0.350000
20
1.500000
0
SEQEND
8
0
0
POLYLINE
8
0
66
1
40
0.016000
41
0.016000
0
VERTEX
8
0
10
0.400000
20
1.400000
0
VERTEX
8
0
10
0.400000
20
1.600000
0
SEQEND
8
0
0
POLYLINE
8
0
66
1
40
0.008000
41
0.008000
0
VERTEX
8
0
10
-4.450000
20
-0.950000
0
VERTEX
8
0
10
-4.550000
20
-0.900000
0
VERTEX
8
0
10
-4.500000
20
-0.850000
0
VERTEX
8
0
10
-4.450000
20
-0.950000
0
SEQEND
8
0
0
POLYLINE
8
0
66
1
40
0.008000
41
0.008000
0
VERTEX
8
0
10
-4.400000
20
-1.000000
0
VERTEX
8
0
10
-4.450000
20
-0.950000
0
SEQEND
8
0
0
POLYLINE
8
0
66
1
40
0.008000
41
0.008000
0
VERTEX
8
0
10
-4.400000
20
-0.910000
0
VERTEX
8
0
10
-4.380000
20
-0.910000
0
SEQEND
8
0
0
POLYLINE
8
0
66
1
40
0.008000
41
0.008000
0
VERTEX
8
0
10
-4.360000
20
-0.910000
0
VERTEX
8
0
10
-4.340000
20
-0.910000
0
SEQEND
8
0
0
POLYLINE
8
0
66
1
40
0.008000
41
0.008000
0
VERTEX
8
0
10
-4.320000
20
-0.910000
0
VERTEX
8
0
10
-4.300000
20
-0.910000
0
SEQEND
8
0
0
POLYLINE
8
0
66
1
40
0.008000
41
0.008000
0
VERTEX
8
0
10
-4.280000
20
-0.910000
0
VERTEX
8
0
10
-4.260000
20
-0.910000
0
SEQEND
8
0
0
POLYLINE
8
0
66
1
40
0.008000
41
0.008000
0
VERTEX
8
0
10
-4.400000
20
-0.940000
0
VERTEX
8
0
10
-4.220000
20
-0.940000
0
SEQEND
8
0
0
POLYLINE
8
0
66
1
40
0.008000
41
0.008000
0
VERTEX
8
0
10
-4.240000
20
-0.910000
0
VERTEX
8
0
10
-4.220000
20
-0.910000
0
SEQEND
8
0
0
TEXT
8
0
10
-5.220000
20
-0.890000
40
0.080000
41
1.000000
1
U1(VBAT)
0
CIRCLE
8
0
10
-4.400000
20
-1.000000
40
0.020000
0
POLYLINE
8
0
66
1
40
0.008000
41
0.008000
0
VERTEX
8
0
10
3.250000
20
3.150000
0
VERTEX
8
0
10
3.150000
20
3.200000
0
VERTEX
8
0
10
3.200000
20
3.250000
0
VERTEX
8
0
10
3.250000
20
3.150000
0
SEQEND
8
0
0
POLYLINE
8
0
66
1
40
0.008000
41
0.008000
0
VERTEX
8
0
10
3.300000
20
3.100000
0
VERTEX
8
0
10
3.250000
20
3.150000
0
SEQEND
8
0
0
POLYLINE
8
0
66
1
40
0.008000
41
0.008000
0
VERTEX
8
0
10
3.300000
20
3.190000
0
VERTEX
8
0
10
3.320000
20
3.190000
0
SEQEND
8
0
0
POLYLINE
8
0
66
1
40
0.008000
41
0.008000
0
VERTEX
8
0
10
3.340000
20
3.190000
0
VERTEX
8
0
10
3.360000
20
3.190000
0
SEQEND
8
0
0
POLYLINE
8
0
66
1
40
0.008000
41
0.008000
0
VERTEX
8
0
10
3.380000
20
3.190000
0
VERTEX
8
0
10
3.400000
20
3.190000
0
SEQEND
8
0
0
POLYLINE
8
0
66
1
40
0.008000
41
0.008000
0
VERTEX
8
0
10
3.420000
20
3.190000
0
VERTEX
8
0
10
3.440000
20
3.190000
0
SEQEND
8
0
0
POLYLINE
8
0
66
1
40
0.008000
41
0.008000
0
VERTEX
8
0
10
3.300000
20
3.160000
0
VERTEX
8
0
10
3.480000
20
3.160000
0
SEQEND
8
0
0
POLYLINE
8
0
66
1
40
0.008000
41
0.008000
0
VERTEX
8
0
10
3.460000
20
3.190000
0
VERTEX
8
0
10
3.480000
20
3.190000
0
SEQEND
8
0
0
TEXT
8
0
10
2.720000
20
3.210000
40
0.080000
41
1.000000
1
R3(1)
0
CIRCLE
8
0
10
3.300000
20
3.100000
40
0.020000
0
POLYLINE
8
0
66
1
40
0.016000
41
0.016000
0
VERTEX
8
0
10
3.660000
20
2.300000
0
VERTEX
8
0
10
3.740000
20
2.300000
0
VERTEX
8
0
10
3.740000
20
2.600000
0
VERTEX
8
0
10
3.660000
20
2.600000
0
VERTEX
8
0
10
3.660000
20
2.300000
0
SEQEND
8
0
0
POLYLINE
8
0
66
1
40
0.016000
41
0.016000
0
VERTEX
8
0
10
3.700000
20
2.700000
0
VERTEX
8
0
10
3.700000
20
2.600000
0
SEQEND
8
0
0
POLYLINE
8
0
66
1
40
0.016000
41
0.016000
0
VERTEX
8
0
10
3.700000
20
2.200000
0
VERTEX
8
0
10
3.700000
20
2.300000
0
SEQEND
8
0
0
TEXT
8
0
10
3.798000
20
2.473000
40
0.120000
41
0.666667
1
R3
0
TEXT
8
0
10
3.798000
20
2.368000
40
0.080000
41
1.000000
1
10k
0
CIRCLE
8
0
10
3.700000
20
2.900000
40
0.020000
0
CIRCLE
8
0
10
3.700000
20
2.000000
40
0.020000
0
POLYLINE
8
0
66
1
40
0.016000
41
0.016000
0
VERTEX
8
0
10
-1.400000
20
2.600000
0
VERTEX
8
0
10
-0.200000
20
2.600000
0
VERTEX
8
0
10
-0.200000
20
3.400000
0
VERTEX
8
0
10
-1.400000
20
3.400000
0
VERTEX
8
0
10
-1.400000
20
2.600000
0
SEQEND
8
0
0
POLYLINE
8
0
66
1
40
0.010000
41
0.010000
0
VERTEX
8
0
10
-1.100000
20
2.700000
0
VERTEX
8
0
10
-0.300000
20
2.700000
0
VERTEX
8
0
10
-0.300000
20
3.300000
0
VERTEX
8
0
10
-1.100000
20
3.300000
0
VERTEX
8
0
10
-1.100000
20
2.700000
0
SEQEND
8
0
0
POLYLINE
8
0
66
1
40
0.016000
41
0.016000
0
VERTEX
8
0
10
-1.050000
20
3.200000
0
VERTEX
8
0
10
-1.000000
20
3.200000
0
VERTEX
8
0
10
-1.000000
20
3.250000
0
VERTEX
8
0
10
-1.050000
20
3.250000
0
VERTEX
8
0
10
-1.050000
20
3.200000
0
SEQEND
8
0
0
POLYLINE
8
0
66
1
40
0.016000
41
0.016000
0
VERTEX
8
0
10
-1.600000
20
3.300000
0
VERTEX
8
0
10
-1.400000
20
3.300000
0
SEQEND
8
0
0
TEXT
8
0
10
-1.350000
20
3.260000
40
0.080000
41
1.000000
1
RXD
0
POLYLINE
8
0
66
1
40
0.016000
41
0.016000
0
VERTEX
8
0
10
-1.600000
20
2.900000
0
VERTEX
8
0
10
-1.400000
20
2.900000
0
SEQEND
8
0
0
TEXT
8
0
10
-1.350000
20
2.860000
40
0.080000
41
1.000000
1
RTS
0
POLYLINE
8
0
66
1
40
0.016000
41
0.016000
0
VERTEX
8
0
10
-1.600000
20
3.100000
0
VERTEX
8
0
10
-1.400000
20
3.100000
0
SEQEND
8
0
0
TEXT
8
0
10
-1.350000
20
3.060000
40
0.080000
41
1.000000
1
TXD
0
POLYLINE
8
0
66
1
40
0.016000
41
0.016000
0
VERTEX
8
0
10
-1.600000
20
2.700000
0
VERTEX
8
0
10
-1.400000
20
2.700000
0
SEQEND
8
0
0
TEXT
8
0
10
-1.350000
20
2.660000
40
0.080000
41
1.000000
1
CTS
0
ENDSEC
0
EOF

